<svg width="30" height="36" viewBox="0 0 30 36" fill="none" xmlns="http://www.w3.org/2000/svg">
<path d="M16.5164 35L4.89496 31.1398C5.18188 29.853 5.7557 26.8505 5.7557 25.1347C5.7557 22.9899 4.03412 21.7036 1.88201 17.4143C-0.270106 13.125 0.971556 2.40817 11.7813 1.11542C22.5413 -0.171381 25.413 9.71758 25.5547 10.1226C25.9645 11.2939 25.5547 12.696 27.2759 15.2695C30.3329 19.8401 28.5672 20.4164 27.7064 20.4164C26.8455 20.4164 26.1329 20.8935 26.4161 21.7036C26.8253 22.8745 26.3949 24.1612 25.5341 24.5902C25.1486 24.7822 26.2677 25.5867 25.9847 27.279C25.5542 29.8525 21.6804 29.4235 19.0989 28.9952C16.298 28.5305 16.2294 32.7125 16.5164 35Z" stroke="white" stroke-width="2" stroke-linecap="round" stroke-linejoin="round"/>
<path d="M8.80078 12.798H14.1215M14.1215 12.798H14.1298M14.1215 12.798L14.1257 12.8022M14.1215 12.798L9.85826 8.53148M14.1298 12.798H19.4589M14.1298 12.798V7.46484M14.1298 12.798V12.8064M14.1298 12.798L18.3931 8.53148M14.1298 12.798L14.1257 12.8022M14.1298 12.8064V18.1312M14.1298 12.8064L18.3847 17.0646M14.1298 12.8064L14.1257 12.8022M14.1257 12.8022L9.86659 17.0646" stroke="#11E59E" stroke-width="2" stroke-linecap="round" stroke-linejoin="round"/>
</svg>
